<svg id="Layer_1" data-name="Layer 1" xmlns="http://www.w3.org/2000/svg" viewBox="0 0 514.04 264.11">
    <defs>
        <style>
            .cls-1 {
                fill: #006b26;
            }

            .cls-2 {
                fill: #58a75c;
            }

            .cls-3 {
                fill: #9d0016;
            }

            .cls-4 {
                fill: #fff;
            }

            .cls-5 {
                fill: #c30d23;
            }

            .cls-6 {
                fill: #af061c;
            }
        </style>
    </defs>
    <path class="cls-1"
        d="M284.94,93.62s-54.88,12.52-83.87-40c0,0-27.8,63.79-83.8,13.93,0,0,2.68,86.16-70.3,72,0,0-1.81,68.59-47,98.53,0,0,65-23.06,100,16.8,0,0,58.34-46.78,107,2.16,0,0-25.14-73.75,47-72.8,0,0-4.8-53.44,30.92-90.57Z" />
    <path class="cls-2"
        d="M244.05,108.09a3.92,3.92,0,0,1-1.21,3.18c-39.5,37.73-88.32,59.56-122.33,71.25C83.68,195.17,56.59,198.86,55.45,199a4,4,0,0,1-1.06-7.88c.27,0,27.6-3.78,63.71-16.22,33.19-11.41,80.82-32.72,119.24-69.39a4,4,0,0,1,5.63.13,3.88,3.88,0,0,1,1.08,2.43Z" />
    <path class="cls-1"
        d="M261.92,68s51.47,22.79,89.95-23.24c0,0,15.12,67.92,79.61,29.69,0,0-19.08,84,55.26,84,0,0-11.32,67.67,27.3,105.67,0,0-59.43-35.05-101.39-2.6,0,0-48.34-57.06-105.48-18.32,0,0,38.77-67.6-32.19-80.42,0,0,14.9-51.55-13.06-94.82Z" />
    <path class="cls-2"
        d="M299.28,90a4,4,0,0,0,.59,3.36c31.56,44.56,75.33,75.31,106.48,93.3,33.73,19.43,59.62,28.24,60.7,28.61a4,4,0,0,0,2.56-7.54c-.27-.09-26.38-9-59.45-28.07-30.4-17.55-73.09-47.57-103.79-90.89a4,4,0,0,0-5.55-1,4.1,4.1,0,0,0-1.54,2.2Z" />
    <path class="cls-3" d="M347.57,106.74a47.33,47.33,0,1,1-25-62.11,47.31,47.31,0,0,1,25,62.11Z" />
    <path class="cls-4"
        d="M334.91,90.53c-5.36,5.6-15.75,4.3-23.25-2.88s-9.25-17.5-3.9-23.09,15.78-4.3,23.25,2.88,9.26,17.51,3.9,23.09Z" />
    <path class="cls-5" d="M277,135a47.33,47.33,0,1,1-24.93-62.11A47.3,47.3,0,0,1,277,135Z" />
    <path class="cls-4"
        d="M264.33,118.81c-5.36,5.58-15.79,4.28-23.27-2.9s-9.22-17.5-3.87-23.07,15.72-4.31,23.24,2.86,9.23,17.5,3.9,23.11Z" />
    <path class="cls-6" d="M288,65.91a47.35,47.35,0,1,1-25-62.1,47.38,47.38,0,0,1,25,62.1Z" />
    <path class="cls-4"
        d="M275.34,49.7c-5.35,5.58-15.77,4.3-23.27-2.89s-9.26-17.53-3.89-23.1,15.77-4.29,23.25,2.88,9.25,17.5,3.91,23.11Z" />
</svg>
