<svg id="Layer_1" data-name="Layer 1" xmlns="http://www.w3.org/2000/svg" viewBox="0 0 442.13 463.86">
    <defs>
        <style>
            .cls-1 {
                fill: #006b26;
            }

            .cls-2 {
                fill: #58a75c;
            }

            .cls-3 {
                fill: #007a2e;
            }
        </style>
    </defs>
    <path class="cls-1"
        d="M144.93,342.6s-6.91-52,44.34-74.4c0,0-56.82-31.3-5.72-79,0,0-80.21-4.93-60.74-71.44,0,0-63.49-7.58-87.4-52.07,0,0,15.8,62.34-24.21,91.39,0,0,38.39,58.18-11.2,99.16,0,0,70.61-17,63.52,49.85,0,0,50,.15,81.41,36.5Z" />
    <path class="cls-2"
        d="M135,303.41a3.72,3.72,0,0,1-2.84-1.4c-31.61-39.91-47.68-87.11-55.6-119.68-8.58-35.28-9.68-60.74-9.71-61.81a3.7,3.7,0,1,1,7.4-.31c0,.26,1.13,26,9.56,60.53,7.74,31.8,23.43,77.85,54.17,116.66a3.71,3.71,0,0,1-3,6Z" />
    <path class="cls-1"
        d="M144.62,352.55s50.31-14.84,49.93-70.77c0,0,51.72,39.19,74.49-26.9,0,0,37.13,71.28,90,26.44,0,0,32.75,54.92,83.11,58.68,0,0-63.37,10.91-73.64,59.28,0,0-68.76-11.41-86,50.56,0,0-13.19-71.43-71.38-37.75,0,0-20.48-45.65-66.45-59.54Z" />
    <path class="cls-2"
        d="M184.46,345.69a3.82,3.82,0,0,0,2.44,2c49.32,12.64,99,8.13,132,2.12,35.7-6.51,59.43-15.86,60.42-16.28a3.67,3.67,0,0,0,2.07-4.8,3.72,3.72,0,0,0-4.81-2.08c-.24.1-24.17,9.53-59.18,15.89-32.2,5.85-80.65,10.26-128.6-2.05a3.73,3.73,0,0,0-4.52,2.68,3.81,3.81,0,0,0,.23,2.5Z" />
    <path class="cls-3"
        d="M33,463.52a6.47,6.47,0,0,1-5-11.88C112.07,408.26,175,289.8,175.49,288.8A6.48,6.48,0,0,1,187,294.66c-.54,1-13.44,26.3-37.3,57.43-22.08,28.83-69.83,87.32-115.86,111.07a7.82,7.82,0,0,1-.91.36Z" />
    <path class="cls-3"
        d="M162.78,313.09s51.56-44,111.81-4.11c0,0-5.91-83.58,81.67-61.6,0,0-50.91-90.47,34.89-116,0,0-36.3-74.21-4.83-131.35,0,0-56.53,60.88-116.12,37.88,0,0-36.18,82.46-115.44,57.39,0,0,68,64.68-9.52,103.91,0,0,35,54.34,17.54,113.91Z" />
    <path class="cls-2"
        d="M203.91,276.84a4.79,4.79,0,0,1-6.06-6.08c21.13-62.31,61.06-112.87,90.83-144.3,32.25-34,59.12-53.1,60.25-53.89a4.79,4.79,0,0,1,5.52,7.84c-.27.18-27.36,19.43-59,52.82-29.08,30.7-68,80-88.57,140.6a4.77,4.77,0,0,1-3,3Z" />
</svg>
