<svg id="Layer_1" data-name="Layer 1" xmlns="http://www.w3.org/2000/svg" viewBox="0 0 516.59 424.61">
    <defs>
        <style>
            .cls-1 {
                fill: #00913a;
            }

            .cls-2 {
                fill: #58a75c;
            }

            .cls-3 {
                fill: #007a2e;
            }

            .cls-4 {
                fill: #9d0016;
            }

            .cls-5 {
                fill: #fff;
            }

            .cls-6 {
                fill: #c30d23;
            }

            .cls-7 {
                fill: #af061c;
            }
        </style>
    </defs>
    <path class="cls-1"
        d="M198.71,300.73s-8.62-56.75,47-82.29c0,0-62.81-33.1-7.87-86.31,0,0-87.84-3.77-67.89-76.93,0,0-69.63-7-96.69-55.2,0,0,18.56,67.88-24.63,100.48,0,0,43.19,62.86-10.24,108.72,0,0,76.9-20,70.5,53.25,0,0,54.73-.85,89.82,38.28Z" />
    <path class="cls-2"
        d="M187.05,258.05a4,4,0,0,1-3.14-1.48c-35.4-43-53.94-94.34-63.26-129.82-10.09-38.4-11.82-66.25-11.89-67.42a4.06,4.06,0,1,1,8.11-.47c0,.27,1.76,28.36,11.68,66,9.12,34.64,27.21,84.7,61.63,126.53a4.06,4.06,0,0,1-3.13,6.64Z" />
    <path class="cls-3"
        d="M7.07,424.61A7.09,7.09,0,0,1,6,410.52c102.39-15.59,190.16-100.7,191-101.56A7.08,7.08,0,1,1,207,319.07c-.92.91-23.12,22.57-58.74,46.52-33,22.18-84,50.4-140.08,58.93a6.56,6.56,0,0,1-1.08.09Z" />
    <path class="cls-3"
        d="M175.38,329.71s68.84-27.59,117.37,34.81c0,0,23.08-88.75,106.22-35.35,0,0-21.18-111.59,76.73-108.1,0,0-11.71-89.66,40.89-137.89,0,0-79.9,43.36-133.66-1.33,0,0-66.31,72.87-139.75,19.2,0,0,47.93,90.81-46.18,104.4,0,0,17.25,68.57-21.62,124.26Z" />
    <path class="cls-2"
        d="M230.7,306.49a5.25,5.25,0,0,1-4.16-8.43c43.68-57.22,102.75-95.69,144.62-117.88,45.32-24,79.85-34.4,81.3-34.83a5.24,5.24,0,0,1,3,10.05c-.34.1-35.15,10.59-79.59,34.17-40.87,21.68-98.51,59.22-141,114.85a5.24,5.24,0,0,1-4.18,2.07Z" />
    <path class="cls-4" d="M156.57,275.63a25.62,25.62,0,1,1-12,34.21,25.6,25.6,0,0,1,12-34.21Z" />
    <path class="cls-5"
        d="M155.94,286.76c4.17-.38,7.95,3.86,8.45,9.45s-2.48,10.43-6.65,10.81-8-3.89-8.45-9.47,2.48-10.43,6.65-10.79Z" />
    <path class="cls-6" d="M195.39,289.29a25.62,25.62,0,1,1-12,34.18,25.61,25.61,0,0,1,12-34.18Z" />
    <path class="cls-5"
        d="M194.77,300.4c4.17-.36,7.95,3.88,8.45,9.47s-2.49,10.42-6.65,10.79-7.95-3.86-8.45-9.46,2.48-10.42,6.65-10.8Z" />
    <path class="cls-7" d="M166.27,313.5a25.63,25.63,0,1,1-12,34.2,25.64,25.64,0,0,1,12-34.2Z" />
    <path class="cls-5"
        d="M165.64,324.62c4.18-.37,8,3.87,8.45,9.47s-2.48,10.44-6.65,10.79-7.95-3.86-8.44-9.46,2.47-10.42,6.64-10.8Z" />
</svg>
