<svg version="1.1"
      xmlns="http://www.w3.org/2000/svg"
      xmlns:xlink="http://www.w3.org/1999/xlink"  id="snapshot-29601" width="250" height="250" viewBox="0 0 250 250"><desc>This image was made on Patterninja.com</desc><defs>
<!-- image 69553 -->
<g id="transformed-69553" data-image="69553" transform="translate(-131.08140545169982, -123.46140545169982) rotate(339, 140.12140545169981, 140.12140545169981)"><g><svg version="1.1" width="280.24281090339963px" height="280.24281090339963px" viewBox="0 0 280.24281090339963 280.24281090339963"><g id="original-69553"><svg xmlns="http://www.w3.org/2000/svg" viewBox="0 0 400 400" xmlns:xlink="http://www.w3.org/1999/xlink" version="1.1" preserveAspectRatio="xMidYMid meet">
  <path d="M316.2 246c0-7.7-.5-24.4-3.9-44.1-6.3-36-19.1-63.2-37.9-80.9-18.9-17.8-43.5-25.3-73.1-22.3-32.9 3.3-59.7 24.1-77.5 60-13.2 26.7-16.8 52-17 53.1-.2 1.5.3 3 1.3 4.1 1 1.1 2.5 1.7 4 1.6 8.6-.6 17.6-8.6 26.3-16.4 5.6-5 12-10.7 15.7-11.6 2.7-.7 4.3-3.4 3.7-6-.7-2.7-3.4-4.3-6-3.7-6.1 1.5-12.9 7.5-20 13.8-4.2 3.8-9.1 8.1-13.4 10.9 2.1-9.5 6.4-25.4 14.5-41.6 16.4-33 39.8-51.3 69.4-54.3 26.6-2.7 48.5 3.9 65.2 19.6 35.5 33.4 38.5 98.8 38.7 117H158.6c-.2-17.6 4.2-29 7.8-38.3 6.8-17.3 9.4-28-16.4-46.9-2.2-1.6-5.4-1.2-7 1.1-1.6 2.2-1.2 5.4 1.1 7 20.8 15.3 18.7 20.7 13 35.2-3.7 9.6-8.7 22.4-8.5 41.9h-6.7c-9.4 0-17 7.6-17 17V285c0 9.4 7.6 17 17 17h169.2c9.4 0 17-7.6 17-17v-22.8c0-7.5-5-14-11.9-16.2zm1.9 39c0 3.9-3.1 7-7 7H141.9c-3.9 0-7-3.1-7-7v-22.8c0-3.9 3.1-7 7-7h169.2c3.9 0 7 3.1 7 7V285z" fill="rgba(221, 221, 221, 1)" stroke="none"/>
  <path d="M95.1 214.4c-14.3 0-26 11.6-26 26 0 14.3 11.6 26 26 26s26-11.6 26-26c-.1-14.3-11.7-26-26-26zm0 41.9c-8.8 0-16-7.2-16-16s7.2-16 16-16 16 7.2 16 16-7.2 16-16 16z" fill="rgba(221, 221, 221, 1)" stroke="none"/>
</svg>
</g></svg></g></g>
<!-- /image 69553 -->

<!-- image 28581 -->
<g id="transformed-28581" data-image="28581" transform="translate(70.53984189769733, 72.48984189769727) rotate(48, 68.46015810230267, 68.46015810230271)"><g transform="translate(136.92031620460534, 0) scale(-1, 1)"><svg version="1.1" width="136.92031620460534px" height="136.92031620460543px" viewBox="0 0 136.92031620460534 136.92031620460543"><g id="original-28581"><svg xmlns="http://www.w3.org/2000/svg" viewBox="0 0 400 400" xmlns:xlink="http://www.w3.org/1999/xlink" version="1.1" preserveAspectRatio="xMidYMid meet">
  <path d="M316.2 246c0-7.7-.5-24.4-3.9-44.1-6.3-36-19.1-63.2-37.9-80.9-18.9-17.8-43.5-25.3-73.1-22.3-32.9 3.3-59.7 24.1-77.5 60-13.2 26.7-16.8 52-17 53.1-.2 1.5.3 3 1.3 4.1 1 1.1 2.5 1.7 4 1.6 8.6-.6 17.6-8.6 26.3-16.4 5.6-5 12-10.7 15.7-11.6 2.7-.7 4.3-3.4 3.7-6-.7-2.7-3.4-4.3-6-3.7-6.1 1.5-12.9 7.5-20 13.8-4.2 3.8-9.1 8.1-13.4 10.9 2.1-9.5 6.4-25.4 14.5-41.6 16.4-33 39.8-51.3 69.4-54.3 26.6-2.7 48.5 3.9 65.2 19.6 35.5 33.4 38.5 98.8 38.7 117H158.6c-.2-17.6 4.2-29 7.8-38.3 6.8-17.3 9.4-28-16.4-46.9-2.2-1.6-5.4-1.2-7 1.1-1.6 2.2-1.2 5.4 1.1 7 20.8 15.3 18.7 20.7 13 35.2-3.7 9.6-8.7 22.4-8.5 41.9h-6.7c-9.4 0-17 7.6-17 17V285c0 9.4 7.6 17 17 17h169.2c9.4 0 17-7.6 17-17v-22.8c0-7.5-5-14-11.9-16.2zm1.9 39c0 3.9-3.1 7-7 7H141.9c-3.9 0-7-3.1-7-7v-22.8c0-3.9 3.1-7 7-7h169.2c3.9 0 7 3.1 7 7V285z" fill="rgba(221, 221, 221, 1)" stroke="none"/>
  <path d="M95.1 214.4c-14.3 0-26 11.6-26 26 0 14.3 11.6 26 26 26s26-11.6 26-26c-.1-14.3-11.7-26-26-26zm0 41.9c-8.8 0-16-7.2-16-16s7.2-16 16-16 16 7.2 16 16-7.2 16-16 16z" fill="rgba(221, 221, 221, 1)" stroke="none"/>
</svg>
</g></svg></g></g>
<!-- /image 28581 -->
</defs><rect x="0" y="0" width="250" height="250" fill="rgba(90, 204, 95, 1)"></rect><use xlink:href="#transformed-69553" transform="translate(-250, -250)"></use><use xlink:href="#transformed-69553" transform="translate(0, -250)"></use><use xlink:href="#transformed-69553" transform="translate(250, -250)"></use><use xlink:href="#transformed-69553" transform="translate(-250, 0)"></use><use xlink:href="#transformed-69553" transform="translate(0, 0)"></use><use xlink:href="#transformed-69553" transform="translate(250, 0)"></use><use xlink:href="#transformed-69553" transform="translate(-250, 250)"></use><use xlink:href="#transformed-69553" transform="translate(0, 250)"></use><use xlink:href="#transformed-69553" transform="translate(250, 250)"></use><use xlink:href="#transformed-28581" transform="translate(-250, -250)"></use><use xlink:href="#transformed-28581" transform="translate(0, -250)"></use><use xlink:href="#transformed-28581" transform="translate(250, -250)"></use><use xlink:href="#transformed-28581" transform="translate(-250, 0)"></use><use xlink:href="#transformed-28581" transform="translate(0, 0)"></use><use xlink:href="#transformed-28581" transform="translate(250, 0)"></use><use xlink:href="#transformed-28581" transform="translate(-250, 250)"></use><use xlink:href="#transformed-28581" transform="translate(0, 250)"></use><use xlink:href="#transformed-28581" transform="translate(250, 250)"></use></svg>